<mxfile host="app.diagrams.net" agent="Mozilla/5.0 (Windows NT 10.0; Win64; x64) AppleWebKit/537.36 (KHTML, like Gecko) Chrome/126.0.0.0 YaBrowser/24.7.0.0 Safari/537.36" version="24.7.16">
  <diagram name="Страница — 1" id="A3MoOtcZovlRSkt_QyaK">
    <mxGraphModel dx="819" dy="474" grid="1" gridSize="10" guides="1" tooltips="1" connect="1" arrows="1" fold="1" page="1" pageScale="1" pageWidth="827" pageHeight="1169" math="0" shadow="0">
      <root>
        <mxCell id="0" />
        <mxCell id="1" parent="0" />
        <mxCell id="mz2s34Ppvs0UXUrRNXCh-2" value="Интерфейс кофемашины" style="shape=umlLifeline;whiteSpace=wrap;html=1;container=1;dropTarget=0;collapsible=0;recursiveResize=0;outlineConnect=0;portConstraint=eastwest;newEdgeStyle={&quot;curved&quot;:0,&quot;rounded&quot;:0};points=[[0,0,0,0,5],[0,1,0,0,-5],[1,0,0,0,5],[1,1,0,0,-5]];perimeter=rectanglePerimeter;targetShapes=umlLifeline;participant=label;" vertex="1" parent="1">
          <mxGeometry x="310" y="160" width="100" height="260" as="geometry" />
        </mxCell>
        <mxCell id="mz2s34Ppvs0UXUrRNXCh-12" value="" style="html=1;points=[[0,0,0,0,5],[0,1,0,0,-5],[1,0,0,0,5],[1,1,0,0,-5]];perimeter=orthogonalPerimeter;outlineConnect=0;targetShapes=umlLifeline;portConstraint=eastwest;newEdgeStyle={&quot;curved&quot;:0,&quot;rounded&quot;:0};" vertex="1" parent="mz2s34Ppvs0UXUrRNXCh-2">
          <mxGeometry x="45" y="70" width="10" height="150" as="geometry" />
        </mxCell>
        <mxCell id="mz2s34Ppvs0UXUrRNXCh-6" value="Интерфейс&lt;div&gt;кофемашины&lt;/div&gt;" style="rounded=0;whiteSpace=wrap;html=1;" vertex="1" parent="1">
          <mxGeometry x="310" y="420" width="100" height="40" as="geometry" />
        </mxCell>
        <mxCell id="mz2s34Ppvs0UXUrRNXCh-7" value="Чип" style="rounded=0;whiteSpace=wrap;html=1;" vertex="1" parent="1">
          <mxGeometry x="440" y="420" width="100" height="40" as="geometry" />
        </mxCell>
        <mxCell id="mz2s34Ppvs0UXUrRNXCh-8" value="Чип" style="shape=umlLifeline;perimeter=lifelinePerimeter;whiteSpace=wrap;html=1;container=1;dropTarget=0;collapsible=0;recursiveResize=0;outlineConnect=0;portConstraint=eastwest;newEdgeStyle={&quot;edgeStyle&quot;:&quot;elbowEdgeStyle&quot;,&quot;elbow&quot;:&quot;vertical&quot;,&quot;curved&quot;:0,&quot;rounded&quot;:0};" vertex="1" parent="1">
          <mxGeometry x="440" y="160" width="100" height="260" as="geometry" />
        </mxCell>
        <mxCell id="mz2s34Ppvs0UXUrRNXCh-18" value="" style="html=1;points=[[0,0,0,0,5],[0,1,0,0,-5],[1,0,0,0,5],[1,1,0,0,-5]];perimeter=orthogonalPerimeter;outlineConnect=0;targetShapes=umlLifeline;portConstraint=eastwest;newEdgeStyle={&quot;curved&quot;:0,&quot;rounded&quot;:0};" vertex="1" parent="mz2s34Ppvs0UXUrRNXCh-8">
          <mxGeometry x="45" y="100" width="10" height="80" as="geometry" />
        </mxCell>
        <mxCell id="mz2s34Ppvs0UXUrRNXCh-13" value="Нажатие кнопки" style="html=1;verticalAlign=bottom;endArrow=block;curved=0;rounded=0;entryX=0;entryY=0;entryDx=0;entryDy=5;" edge="1" target="mz2s34Ppvs0UXUrRNXCh-12" parent="1" source="mz2s34Ppvs0UXUrRNXCh-16">
          <mxGeometry relative="1" as="geometry">
            <mxPoint x="239.92857142857133" y="265" as="sourcePoint" />
          </mxGeometry>
        </mxCell>
        <mxCell id="mz2s34Ppvs0UXUrRNXCh-14" value="Кофе выливается" style="html=1;verticalAlign=bottom;endArrow=open;dashed=1;endSize=8;curved=0;rounded=0;exitX=0;exitY=1;exitDx=0;exitDy=-5;" edge="1" source="mz2s34Ppvs0UXUrRNXCh-12" parent="1" target="mz2s34Ppvs0UXUrRNXCh-16">
          <mxGeometry relative="1" as="geometry">
            <mxPoint x="239.92857142857133" y="335" as="targetPoint" />
          </mxGeometry>
        </mxCell>
        <mxCell id="mz2s34Ppvs0UXUrRNXCh-15" value="Пользователь" style="shape=umlActor;verticalLabelPosition=bottom;verticalAlign=top;html=1;outlineConnect=0;" vertex="1" parent="1">
          <mxGeometry x="230" y="420" width="20" height="40" as="geometry" />
        </mxCell>
        <mxCell id="mz2s34Ppvs0UXUrRNXCh-16" value="" style="shape=umlLifeline;perimeter=lifelinePerimeter;whiteSpace=wrap;html=1;container=1;dropTarget=0;collapsible=0;recursiveResize=0;outlineConnect=0;portConstraint=eastwest;newEdgeStyle={&quot;curved&quot;:0,&quot;rounded&quot;:0};participant=umlActor;" vertex="1" parent="1">
          <mxGeometry x="230" y="160" width="20" height="260" as="geometry" />
        </mxCell>
        <mxCell id="mz2s34Ppvs0UXUrRNXCh-17" value="Пользователь" style="text;html=1;align=center;verticalAlign=middle;whiteSpace=wrap;rounded=0;" vertex="1" parent="1">
          <mxGeometry x="210" y="130" width="60" height="30" as="geometry" />
        </mxCell>
        <mxCell id="mz2s34Ppvs0UXUrRNXCh-19" value="Выдать кофе" style="html=1;verticalAlign=bottom;endArrow=block;curved=0;rounded=0;entryX=0;entryY=0;entryDx=0;entryDy=5;" edge="1" target="mz2s34Ppvs0UXUrRNXCh-18" parent="1" source="mz2s34Ppvs0UXUrRNXCh-12">
          <mxGeometry relative="1" as="geometry">
            <mxPoint x="415" y="265" as="sourcePoint" />
          </mxGeometry>
        </mxCell>
        <mxCell id="mz2s34Ppvs0UXUrRNXCh-20" value="Кофе готов" style="html=1;verticalAlign=bottom;endArrow=open;dashed=1;endSize=8;curved=0;rounded=0;exitX=0;exitY=1;exitDx=0;exitDy=-5;" edge="1" source="mz2s34Ppvs0UXUrRNXCh-18" parent="1" target="mz2s34Ppvs0UXUrRNXCh-12">
          <mxGeometry relative="1" as="geometry">
            <mxPoint x="415" y="335" as="targetPoint" />
          </mxGeometry>
        </mxCell>
      </root>
    </mxGraphModel>
  </diagram>
</mxfile>
